<svg xmlns="http://www.w3.org/2000/svg" width="64" height="64" viewBox="0 0 64 64" fill="none"><path d="M16.5 49.5 19 40.8A19 19 0 1 1 26 47.4l-9.5 2.1Z" stroke="currentColor" stroke-width="3" stroke-linejoin="round"/><path d="M25.5 23.5c.4-.9 1-1.1 1.8-1.1h1.3c.5 0 1 .1 1.4 1.1l1.6 3.8c.4 1-.1 1.5-.7 2.1-.6.6-1.1 1.1-.5 2.1 1 1.8 2.6 3.6 4.1 4.5 1 .6 1.5.3 2.1-.4l1.2-1.4c.5-.6 1.1-.8 1.9-.5l4 1.9c.8.4 1 1 .8 1.8-.5 2.4-2.2 4-4.7 4-4.1 0-8.7-2.6-12.3-6.2-3.6-3.6-6-8.1-6-11.8 0-1.6.8-3 2-3.9Z" fill="currentColor"/></svg>
